<?xml version="1.0" encoding="UTF-8"?>
<svg width="39px" height="38px" viewBox="0 0 39 38" version="1.1" xmlns="http://www.w3.org/2000/svg" xmlns:xlink="http://www.w3.org/1999/xlink">
    <!-- Generator: Sketch 51.2 (57519) - http://www.bohemiancoding.com/sketch -->
    <title>dribble_icon</title>
    <desc>Created with Sketch.</desc>
    <defs></defs>
    <g id="Design---Mobile" stroke="none" stroke-width="1" fill="none" fill-rule="evenodd">
        <g id="iPhone_Home" transform="translate(-122.000000, -619.000000)">
            <g id="dribble_icon" transform="translate(122.000000, 619.000000)">
                <path d="M38.6725405,19.0021452 C38.6725405,29.4960798 30.16433,38.0042903 19.6696036,38.0042903 C9.17487716,38.0042903 0.666666667,29.4960798 0.666666667,19.0021452 C0.666666667,8.50662698 9.17487716,0 19.6696036,0 C30.16433,0 38.6725405,8.50662698 38.6725405,19.0021452" id="Fill-1" fill="#D0EEE7"></path>
                <path d="M23.2631133,18.3703168 C23.1789301,18.1658721 23.094747,17.9642026 23.0077886,17.7579077 C22.7607897,17.1778766 22.4952891,16.6033961 22.2196125,16.0390916 C26.8996396,14.1297071 28.7988481,11.3812666 28.8229005,11.3488884 C30.4834359,13.3674335 31.4890081,15.9456576 31.5158356,18.7570042 C31.3446941,18.7209257 27.3344316,17.8568922 23.2631133,18.3703168 M26.2918559,28.7054154 C26.1715943,27.987546 25.5397582,24.5119852 23.984683,20.2399225 C27.8108527,19.6275133 31.126373,20.6774897 31.3705966,20.7570474 C30.8423706,24.0596165 28.9514879,26.9079667 26.2918559,28.7054154 M19.6700661,30.7267357 C16.9225507,30.7267357 14.3998319,29.7840696 12.3886876,28.2141929 L12.3877625,28.2178933 C12.3877625,28.2178933 12.2776769,28.1364854 12.1213368,28.0115984 C12.2082952,28.0819052 12.299879,28.1448112 12.3886876,28.2141929 C12.4108897,28.1688636 14.6912351,23.2520135 21.686761,20.8153281 C21.7126635,20.8060772 21.7394911,20.7968263 21.7653936,20.7894256 C23.4333297,25.1225442 24.1215962,28.752595 24.2964381,29.78777 C22.8755008,30.3909282 21.3111747,30.7267357 19.6700661,30.7267357 M10.8567396,26.7951058 C8.96955724,24.696078 7.82059623,21.9189597 7.82059623,18.8744905 C7.82059623,18.7496035 7.82522168,18.6247164 7.82984713,18.5007544 C8.03891733,18.5053799 13.893808,18.6376677 19.9956976,16.8124663 C20.3352054,17.4776056 20.6608368,18.1519957 20.9568654,18.8254608 C20.8005253,18.8707902 20.6451103,18.9179697 20.4896953,18.9679246 C14.0954775,21.0354993 10.8521141,26.7886302 10.8521141,26.7886302 C10.8521141,26.7886302 10.8558145,26.7932556 10.8567396,26.7951058 M14.6135276,8.15825515 C14.7707928,8.36917553 16.9632546,11.3396375 19.0141777,14.9863399 C13.3248781,16.498861 8.38675093,16.4387302 8.07314563,16.4331797 C8.84374509,12.762425 11.3081832,9.71888093 14.6135276,8.15825515 M16.832817,7.37007899 L16.8300417,7.37192917 C16.8300417,7.37192917 16.8161654,7.37562953 16.7939632,7.37932989 C16.8069145,7.37562953 16.8198657,7.37377935 16.832817,7.37007899 M19.6700661,7.02502066 C22.670131,7.02502066 25.4083956,8.14345372 27.4972474,9.9834565 C27.4676445,10.0278608 25.7802815,12.5977591 21.3065492,14.274021 C19.2806035,10.5523865 17.0557635,7.59487571 16.8772213,7.35990301 C17.7727078,7.14250701 18.7070481,7.02502066 19.6700661,7.02502066 M32.4548014,13.4738187 C32.1069678,12.6514143 31.6758761,11.8586127 31.1744777,11.1176161 C30.6795548,10.38217 30.1087747,9.69205334 29.4824892,9.06484274 C28.8543535,8.43670705 28.1633117,7.86685199 27.4297158,7.37007899 C26.6877942,6.86775546 25.8940675,6.44036417 25.071663,6.09160547 C24.233532,5.73729624 23.3556222,5.46439487 22.463836,5.28215226 C21.5498477,5.09528421 20.610882,5 19.6700661,5 C18.7311004,5 17.7893594,5.09528421 16.8753711,5.28215226 C15.9835849,5.46439487 15.1066002,5.73729624 14.2684692,6.09160547 C13.4460648,6.44036417 12.6523381,6.86775546 11.9113415,7.37007899 C11.1758954,7.86685199 10.4848537,8.43670705 9.85764305,9.06484274 C9.23135754,9.69205334 8.66150248,10.38217 8.16472948,11.1176161 C7.66333104,11.8586127 7.23223939,12.6514143 6.88625596,13.4738187 C6.53102164,14.3119497 6.25812027,15.1898595 6.07495257,16.0825708 C5.88900961,16.995634 5.7937254,17.9345997 5.7937254,18.8744905 C5.7937254,19.8153064 5.88900961,20.7570474 6.07495257,21.6710357 C6.25812027,22.5618968 6.53102164,23.4398066 6.88625596,24.2770125 C7.23223939,25.1003421 7.66333104,25.8940688 8.16472948,26.6369155 C8.66150248,27.3705114 9.23135754,28.0606281 9.85764305,28.6887638 C10.4848537,29.3159744 11.1758954,29.8849044 11.9113415,30.3816774 C12.6523381,30.8821507 13.4460648,31.3123173 14.2684692,31.661076 C15.1066002,32.0153852 15.9835849,32.2864364 16.8753711,32.4705292 C17.7893594,32.6583223 18.7311004,32.7526814 19.6700661,32.7526814 C20.610882,32.7526814 21.5498477,32.6583223 22.463836,32.4705292 C23.3556222,32.2864364 24.233532,32.0153852 25.071663,31.661076 C25.8940675,31.3123173 26.6877942,30.8821507 27.4297158,30.3816774 C28.1633117,29.8849044 28.8543535,29.3159744 29.4824892,28.6887638 C30.1087747,28.0606281 30.6795548,27.3705114 31.1744777,26.6369155 C31.6758761,25.8940688 32.1069678,25.1003421 32.4548014,24.2770125 C32.8091106,23.4398066 33.0810869,22.5618968 33.2642546,21.6710357 C33.4511226,20.7570474 33.5454817,19.8153064 33.5454817,18.8744905 C33.5454817,17.9345997 33.4511226,16.995634 33.2642546,16.0825708 C33.0810869,15.1898595 32.8091106,14.3119497 32.4548014,13.4738187" id="Fill-3" fill="#FFFFFF"></path>
            </g>
        </g>
    </g>
</svg>