<?xml version="1.0" encoding="UTF-8"?>
<svg width="38px" height="38px" viewBox="0 0 38 38" version="1.1" xmlns="http://www.w3.org/2000/svg" xmlns:xlink="http://www.w3.org/1999/xlink">
    <!-- Generator: Sketch 51.2 (57519) - http://www.bohemiancoding.com/sketch -->
    <title>ins__icon</title>
    <desc>Created with Sketch.</desc>
    <defs>
        <polygon id="path-1" points="0 0.408125 24.591875 0.408125 24.591875 25 0 25"></polygon>
    </defs>
    <g id="Design---Mobile" stroke="none" stroke-width="1" fill="none" fill-rule="evenodd">
        <g id="iPhone_Home" transform="translate(-306.000000, -619.000000)">
            <g id="ins__icon" transform="translate(306.000000, 619.000000)">
                <path d="M38.0058738,19.0021452 C38.0058738,29.4960798 29.4976633,38.0042903 19.0029369,38.0042903 C8.50821049,38.0042903 0,29.4960798 0,19.0021452 C0,8.50662698 8.50821049,0 19.0029369,0 C29.4976633,0 38.0058738,8.50662698 38.0058738,19.0021452" id="Fill-1" fill="#D0EEE7"></path>
                <g id="Group-3" transform="translate(7.000000, 7.000000)">
                    <mask id="mask-2" fill="white">
                        <use xlink:href="#path-1"></use>
                    </mask>
                    <g id="Clip-2"></g>
                    <path d="M12.295875,0.4079375 C8.9565,0.4079375 8.53775,0.4223125 7.2265,0.4823125 C5.91775,0.5416875 5.023375,0.7498125 4.2415,1.0535625 C3.43275,1.3679375 2.74775,1.7885625 2.064,2.4723125 C1.38025,3.1554375 0.959625,3.8410625 0.64525,4.6498125 C0.3415,5.4316875 0.133375,6.3260625 0.074,7.6348125 C0.014625,8.9460625 -0.000375,9.3648125 -0.000375,12.7041875 C-0.000375,16.0435625 0.014625,16.4623125 0.074,17.7735625 C0.133375,19.0823125 0.3415,19.9766875 0.64525,20.7585625 C0.959625,21.5666875 1.38025,22.2523125 2.064,22.9360625 C2.74775,23.6198125 3.43275,24.0404375 4.2415,24.3541875 C5.023375,24.6585625 5.91775,24.8666875 7.2265,24.9260625 C8.53775,24.9854375 8.9565,25.0004375 12.295875,25.0004375 C15.63525,25.0004375 16.054,24.9854375 17.36525,24.9260625 C18.674,24.8666875 19.568375,24.6585625 20.35025,24.3541875 C21.159,24.0404375 21.844,23.6198125 22.52775,22.9360625 C23.2115,22.2523125 23.632125,21.5666875 23.9465,20.7585625 C24.25025,19.9766875 24.458375,19.0823125 24.51775,17.7735625 C24.577125,16.4623125 24.592125,16.0435625 24.592125,12.7041875 C24.592125,9.3648125 24.577125,8.9460625 24.51775,7.6348125 C24.458375,6.3260625 24.25025,5.4316875 23.9465,4.6498125 C23.632125,3.8410625 23.2115,3.1554375 22.52775,2.4723125 C21.844,1.7885625 21.159,1.3679375 20.35025,1.0535625 C19.568375,0.7498125 18.674,0.5416875 17.36525,0.4823125 C16.054,0.4223125 15.63525,0.4079375 12.295875,0.4079375 M12.295875,2.6235625 C15.579,2.6235625 15.96775,2.6360625 17.264625,2.6954375 C18.463375,2.7498125 19.114,2.9504375 19.54775,3.1185625 C20.1215,3.3416875 20.5315,3.6079375 20.9615,4.0385625 C21.392125,4.4685625 21.65775,4.8779375 21.8815,5.4523125 C22.049625,5.8860625 22.25025,6.5366875 22.304625,7.7354375 C22.363375,9.0323125 22.3765,9.4210625 22.3765,12.7041875 C22.3765,15.9873125 22.363375,16.3760625 22.304625,17.6729375 C22.25025,18.8716875 22.049625,19.5223125 21.8815,19.9554375 C21.65775,20.5298125 21.392125,20.9398125 20.9615,21.3698125 C20.5315,21.8004375 20.1215,22.0660625 19.54775,22.2898125 C19.114,22.4579375 18.463375,22.6585625 17.264625,22.7129375 C15.968375,22.7716875 15.579625,22.7848125 12.295875,22.7848125 C9.01275,22.7848125 8.623375,22.7716875 7.327125,22.7129375 C6.128375,22.6585625 5.47775,22.4579375 5.044,22.2898125 C4.47025,22.0660625 4.06025,21.8004375 3.63025,21.3698125 C3.199625,20.9398125 2.934,20.5298125 2.71025,19.9554375 C2.54275,19.5223125 2.3415,18.8716875 2.287125,17.6729375 C2.228375,16.3760625 2.21525,15.9873125 2.21525,12.7041875 C2.21525,9.4210625 2.228375,9.0323125 2.287125,7.7354375 C2.3415,6.5366875 2.54275,5.8860625 2.71025,5.4523125 C2.934,4.8779375 3.199625,4.4685625 3.63025,4.0385625 C4.06025,3.6079375 4.47025,3.3416875 5.044,3.1185625 C5.47775,2.9504375 6.128375,2.7498125 7.327125,2.6954375 C8.624,2.6360625 9.01275,2.6235625 12.295875,2.6235625" id="Fill-1" fill="#FFFFFF" mask="url(#mask-2)"></path>
                </g>
                <path d="M18.5,23.7191289 C16.1697021,23.7191289 14.2807582,21.8300916 14.2807582,19.4996783 C14.2807582,17.169265 16.1697021,15.2808711 18.5,15.2808711 C20.8302979,15.2808711 22.7192418,17.169265 22.7192418,19.4996783 C22.7192418,21.8300916 20.8302979,23.7191289 18.5,23.7191289 M18.5,13 C14.9106206,13 12,15.9101213 12,19.4996783 C12,23.0892353 14.9106206,26 18.5,26 C22.0893794,26 25,23.0892353 25,19.4996783 C25,15.9101213 22.0893794,13 18.5,13" id="Fill-4" fill="#FFFFFF"></path>
                <path d="M28,12.4996823 C28,13.3283203 27.3284625,14 26.5006353,14 C25.6721728,14 25,13.3283203 25,12.4996823 C25,11.6710443 25.6721728,11 26.5006353,11 C27.3284625,11 28,11.6710443 28,12.4996823" id="Fill-6" fill="#FFFFFF"></path>
            </g>
        </g>
    </g>
</svg>
