<?xml version="1.0" encoding="UTF-8"?>
<svg width="39px" height="38px" viewBox="0 0 39 38" version="1.1" xmlns="http://www.w3.org/2000/svg" xmlns:xlink="http://www.w3.org/1999/xlink">
    <!-- Generator: Sketch 51.2 (57519) - http://www.bohemiancoding.com/sketch -->
    <title>medium_icon</title>
    <desc>Created with Sketch.</desc>
    <defs></defs>
    <g id="Design---Mobile" stroke="none" stroke-width="1" fill="none" fill-rule="evenodd">
        <g id="iPhone_Home" transform="translate(-214.000000, -619.000000)">
            <g id="medium_icon" transform="translate(214.000000, 619.000000)">
                <path d="M38.3392071,19.0021452 C38.3392071,29.4960798 29.8309967,38.0042903 19.3362702,38.0042903 C8.84154382,38.0042903 0.333333333,29.4960798 0.333333333,19.0021452 C0.333333333,8.50662698 8.84154382,0 19.3362702,0 C29.8309967,0 38.3392071,8.50662698 38.3392071,19.0021452" id="Fill-1" fill="#D0EEE7"></path>
                <path d="M9.99371738,13.0889293 C10.0247725,12.7790679 9.90745305,12.472657 9.67557453,12.2642423 L7.31814286,9.4237304 L7.31814286,9 L14.6374989,9 L20.2950589,21.4075714 L25.2687152,9 L32.2464645,9 L32.2464645,9.4237304 L30.2313297,11.3567416 C30.0574208,11.4892436 29.9711565,11.7066297 30.0070425,11.9226356 L30.0070425,26.1210545 C29.9711565,26.3363703 30.0574208,26.5544465 30.2313297,26.6862584 L32.1995367,28.6192696 L32.1995367,29.043 L22.2991518,29.043 L22.2991518,28.6192696 L24.3377505,26.6393306 C24.5385739,26.4391974 24.5385739,26.3805377 24.5385739,26.0734366 L24.5385739,14.59752 L18.8685919,28.9960722 L18.1025646,28.9960722 L11.502308,14.59752 L11.502308,24.2473932 C11.4470989,24.6531807 11.5823613,25.0617285 11.8680688,25.3550273 L14.5201794,28.5723418 L14.5201794,28.9960722 L7,28.9960722 L7,28.5723418 L9.65211063,25.3550273 C9.93574775,25.0610384 10.0627289,24.6497301 9.99371738,24.2473932 L9.99371738,13.0889293 Z" id="Fill-1" fill="#FFFFFF"></path>
            </g>
        </g>
    </g>
</svg>